<svg viewBox="0 0 100 100" xmlns="http://www.w3.org/2000/svg" xmlns:xlink="http://www.w3.org/1999/xlink" width="100" height="100">
<defs>


 <g id="bg" fill="#e53935" class="bg"><path d="M0,50a50,50 0 1,0 100,0a50,50 0 1,0 -100,0"/></g>

 <path fill="#ffffff" id="i-584" d="M43.94,10.05l-0.051-0.7l-0.68-0.18c-0.15-0.04-14.75-3.98-18.5-7.74L24,0.72l-0.71,0.71c-3.75,3.76-18.35,7.7-18.5,7.74 L4.11,9.35l-0.06,0.7C4.04,10.29,2.25,34.82,23.5,47l0.5,0.28L24.5,47C45.75,34.82,43.97,10.29,43.94,10.05z M31.71,28.42 l-1.42,1.42L24,23.55l-6.29,6.29l-1.42-1.42l6.3-6.29l-6.3-6.29l1.42-1.42l6.29,6.3l6.29-6.3l1.42,1.42l-6.3,6.29L31.71,28.42z"/> 
</defs>
<use x="0" y="0" class="bg" xlink:href="#bg"/>
<use x="26" y="26" xlink:href="#i-584"/>
<use x="0" y="0" xlink:href="#fg"/>
</svg>