<svg viewBox="0 0 100 100" xmlns="http://www.w3.org/2000/svg" xmlns:xlink="http://www.w3.org/1999/xlink" width="100" height="100">
<defs>


 <g id="bg" fill="#ff5722" class="bg"><path d="M0,50a50,50 0 1,0 100,0a50,50 0 1,0 -100,0"/></g>

 <path fill="#ffffff" id="i-1158" d="M44.235,10.97l-0.48-1.94l-4.95,1.24c0.351-0.51,0.671-1.04,0.96-1.58l5.78-3.859l-1.1-1.66l-3.28,2.18 c0.54-1.74,0.83-3.551,0.83-5.35h-2c0,1.359-0.19,2.72-0.54,4.049l-2.75-2.76l-1.42,1.42l3.46,3.461 c-0.84,2.06-2.1,3.949-3.75,5.529l-5.36-4.47l-1.279,1.54l5.1,4.25c-2.52,1.84-5.71,2.98-9.46,2.98s-6.94-1.141-9.46-2.98l5.1-4.25 l-1.28-1.54l-5.36,4.47c-1.651-1.58-2.91-3.47-3.75-5.529l3.46-3.461l-1.42-1.42l-2.75,2.76C8.185,2.72,7.995,1.359,7.995,0h-2 c0,1.799,0.29,3.609,0.83,5.35l-3.28-2.18l-1.1,1.66l5.78,3.859c0.29,0.54,0.61,1.07,0.96,1.58l-4.95-1.24l-0.48,1.94l7.56,1.89 c1.98,1.99,4.48,3.54,7.43,4.4c-1.48,0.74-2.79,1.779-3.85,3.039C13.115,18.26,6.075,18,5.995,18c-0.45,0-0.83,0.109-1.12,0.34 c-0.35,0.27-0.55,0.68-0.55,1.14c0,1.88,3.61,4.75,6.72,4.75c0.61,0,1.18-0.11,1.73-0.31c-0.42,1.109-0.681,2.3-0.76,3.539 c-3.29,2.291-5.02,5.201-5.02,8.42c0,6.681,7.63,12.121,17,12.121s17-5.44,17-12.121c0-3.219-1.73-6.129-5.02-8.42 c-0.07-1.16-0.311-2.27-0.681-3.319c0.32,0.06,0.65,0.09,0.98,0.09c1.399,0,2.779-0.521,3.91-1.229 c1.13-0.711,2.029-1.601,2.46-2.36c0.52-0.899,0.369-1.53,0.159-1.89C42.646,18.47,42.235,18,41.325,18 c-0.07,0-6.32,0.229-8.53,1.959c-1.01-1.109-2.21-2.029-3.55-2.699c2.95-0.86,5.45-2.41,7.43-4.4L44.235,10.97z M17.995,24 c0-1.101,0.9-2,2-2c1.099,0,2,0.899,2,2c0,1.1-0.901,2-2,2C18.895,26,17.995,25.1,17.995,24z M23.995,41c-3.13,0-5-1.5-5-4 c0-2.76,2.24-5,5-5s5,2.24,5,5C28.995,39.5,27.125,41,23.995,41z M29.995,24c0,1.1-0.9,2-2,2c-1.101,0-2-0.9-2-2 c0-1.101,0.899-2,2-2C29.095,22,29.995,22.899,29.995,24z"/> 
</defs>
<use x="0" y="0" class="bg" xlink:href="#bg"/>
<use x="26" y="26" xlink:href="#i-1158"/>
<use x="0" y="0" xlink:href="#fg"/>
</svg>