<svg viewBox="0 0 100 100" xmlns="http://www.w3.org/2000/svg" xmlns:xlink="http://www.w3.org/1999/xlink" width="100" height="100">
<defs>


 <g id="bg" fill="#ff5722" class="bg"><path d="M0,50a50,50 0 1,0 100,0a50,50 0 1,0 -100,0"/></g>

 <path fill="#ffffff" id="i-1785" d="M47.002,5.061c0,2.02-1.369,3.43-3.32,3.43c-0.359,0-0.738-0.051-1.109-0.15c-0.779,1.721-2.971,5.54-8.859,11.43 c-0.191,0.181-0.5,0.531-0.791,0.971l-5.67-5.68c1.24-1.451,1.381-1.631,1.861-2.291c0.68-0.92,2.1-2.819,8.109-10.33 c0.33-0.409,2.09-2.379,4.83-2.379C44.783,0.061,47.002,2.301,47.002,5.061z M25.262,17.391c-0.1,0.109-10.08,11.06-19.929,19.93 c-0.641,0.58-0.78,1.029-1.02,1.789c-0.311,1.011-0.9,2.891-3.201,7.5l-0.729,1.451h1.62c5.609,0,9.029-2.131,11.62-4.221 c5.03-4.02,17.62-19.49,18.161-20.15l0.559-0.699l-6.369-6.381L25.262,17.391z"/> 
</defs>
<use x="0" y="0" class="bg" xlink:href="#bg"/>
<use x="26" y="26" xlink:href="#i-1785"/>
<use x="0" y="0" xlink:href="#fg"/>
</svg>