<svg viewBox="0 0 100 100" xmlns="http://www.w3.org/2000/svg" xmlns:xlink="http://www.w3.org/1999/xlink" width="100" height="100">
<defs>


 <g id="bg" fill="#43a047" class="bg"><path d="M0,50a50,50 0 1,0 100,0a50,50 0 1,0 -100,0"/></g>

 <path fill="#ffffff" id="i-583" d="M43.951,10.045l-0.061-0.7l-0.68-0.18c-0.15-0.04-14.75-3.98-18.5-7.74L24,0.715l-0.709,0.71 c-3.75,3.76-18.352,7.7-18.5,7.74l-0.682,0.18l-0.059,0.7c-0.021,0.25-1.801,24.781,19.459,36.951L24,47.285l0.5-0.289 C45.75,34.826,43.971,10.295,43.951,10.045z M20.73,30.135l-6.689-6.77l1.42-1.409l5.279,5.339l12.301-12.339l1.42,1.409 L20.73,30.135z"/> 
</defs>
<use x="0" y="0" class="bg" xlink:href="#bg"/>
<use x="26" y="26" xlink:href="#i-583"/>
<use x="0" y="0" xlink:href="#fg"/>
</svg>