<svg viewBox="0 0 100 100" xmlns="http://www.w3.org/2000/svg" xmlns:xlink="http://www.w3.org/1999/xlink" width="100" height="100">
<defs>


 <g id="bg" fill="#b0bec5" class="bg"><path d="M0,50a50,50 0 1,0 100,0a50,50 0 1,0 -100,0"/></g>

 <path fill="#555555" id="i-594" d="M36,31.59l-1.5,1.5l-3.81-3.82C33.36,26.27,35,22.33,35,18c0-9.37-7.63-17-17-17C8.62,1,1,8.63,1,18s7.62,17,17,17 c4.33,0,8.27-1.64,11.27-4.31l3.82,3.81l-1.5,1.5L43,47.41L47.41,43L36,31.59z M18,33C9.73,33,3,26.27,3,18C3,9.73,9.73,3,18,3 c8.27,0,15,6.73,15,15C33,26.27,26.27,33,18,33z"/> 
</defs>
<use x="0" y="0" class="bg" xlink:href="#bg"/>
<use x="26" y="26" xlink:href="#i-594"/>
<use x="0" y="0" xlink:href="#fg"/>
</svg>