<svg viewBox="0 0 100 100" xmlns="http://www.w3.org/2000/svg" xmlns:xlink="http://www.w3.org/1999/xlink" width="100" height="100">
<defs>


 <g id="bg" fill="#e53935" class="bg"><path d="M0,50a50,50 0 1,0 100,0a50,50 0 1,0 -100,0"/></g>

 <path fill="#ffffff" id="i-1660" d="M39.24,36.03c-1.86-0.46-4.521-1.45-7.49-2.79c-0.54-1.181-0.73-2.311-0.8-2.87c1.67-1.9,3.149-5.7,3.74-7.31 c1.25-0.32,1.869-2.17,2.26-3.74c0.27-0.83,0.819-2.95-0.05-4.76c-0.271-0.54-0.75-0.96-1.341-1.23c0.66-1.4,0.83-2.9,0.471-4.4 c-0.57-2.34-2.3-4.14-3.66-4.82c-0.08-0.04-0.32-0.17-0.34-0.29c-0.04-0.25,0.279-0.79,0.6-1.11l1.14-1.15L32.24,1.05 C32.1,1,28.82-0.07,26.47,1.11c-0.239,0.12-0.45,0.21-0.62,0.28L26.68,0h-1.76c-1.18,0-3.13,0.22-6.49,2.13 C18.3,2.2,18.12,2.34,17.92,2.5V1.38l-1.45,0.73c-1.58,0.79-4.34,3.21-4.99,6.35c-0.35,1.67-0.04,3.34,0.87,4.91 c-0.55,0.27-1,0.67-1.25,1.18c-0.86,1.79-0.32,3.93-0.07,4.69c0.41,1.63,1.03,3.48,2.26,3.82c0.59,1.73,1.98,5.47,3.62,7.34 c-0.02,0.56-0.15,1.68-0.66,2.84c-1.89,0.84-5.1,2.189-7.49,2.79C4.51,37.1,0,40.25,0,44v4h48v-5C48,39.92,44.89,37.45,39.24,36.03z M24.02,36c-1.47-0.02-4.23-1.15-5.8-2.29c0.71-1.79,0.71-3.39,0.7-3.7v-0.42l-0.3-0.3c-1.45-1.4-2.98-5.42-3.67-7.6l-0.51-1.55 l-0.73,0.73c-0.17-0.32-0.45-0.95-0.76-2.18c-0.15-0.47-0.61-2.1-0.05-3.26C13,15.22,13.39,15,14,15h0.82l0.16-0.81 C15.03,13.94,16.25,8,21,8c0.21,0,0.22,0.01,0.43,0.18C21.93,8.6,22.53,9,23.92,9c1.11,0,1.811-0.4,2.311-0.7 C26.59,8.1,26.77,8,27,8c4.46,0,6.01,6.17,6.03,6.23L33.21,15H34c0.61,0,1,0.23,1.1,0.44c0.45,0.93,0.271,2.29-0.069,3.32 c-0.3,1.18-0.57,1.8-0.74,2.11l-0.73-0.72l-0.51,1.54c-0.53,1.6-2.25,6.08-3.83,7.6l-0.3,0.29v0.43c0,0.021,0.061,1.75,0.86,3.7 C28.24,34.84,25.44,35.98,24.02,36z"/> 
</defs>
<use x="0" y="0" class="bg" xlink:href="#bg"/>
<use x="26" y="26" xlink:href="#i-1660"/>
<use x="0" y="0" xlink:href="#fg"/>
</svg>