<svg viewBox="0 0 100 100" xmlns="http://www.w3.org/2000/svg" xmlns:xlink="http://www.w3.org/1999/xlink" width="100" height="100">
<defs>


 <g id="bg" fill="#ffeb3b" class="bg"><path d="M0,50a50,50 0 1,0 100,0a50,50 0 1,0 -100,0"/></g>

 <path fill="#555555" id="i-2071" d="M18.93,13.55l-5-5.13l6.92-1.06L24,0.65l3.15,6.71l6.93,1.06l-5.01,5.13l1.189,7.32L24,17.411l-6.26,3.46L18.93,13.55z M24,19.701l-2.88,1.59c-0.09,2.03-0.44,5.161-1.45,9.709h8.66c-1.01-4.549-1.36-7.689-1.45-9.709L24,19.701z M14,40h20v-7H14V40z M11,42v6h26v-6H11z"/> 
</defs>
<use x="0" y="0" class="bg" xlink:href="#bg"/>
<use x="26" y="26" xlink:href="#i-2071"/>
<use x="0" y="0" xlink:href="#fg"/>
</svg>