<svg viewBox="0 0 100 100" xmlns="http://www.w3.org/2000/svg" xmlns:xlink="http://www.w3.org/1999/xlink" width="100" height="100">
<defs>


 <g id="bg" fill="#b0bec5" class="bg"><path d="M0,50a50,50 0 1,0 100,0a50,50 0 1,0 -100,0"/></g>

 <path fill="#555555" id="i-1830" d="M30.08,48H0v-4c0-3.75,4.51-6.9,8.76-7.971c2.391-0.6,5.6-1.949,7.49-2.789c0.51-1.16,0.641-2.29,0.66-2.84 c-1.641-1.871-3.03-5.61-3.62-7.34c-1.229-0.34-1.851-2.19-2.261-3.82c-0.25-0.76-0.789-2.9,0.07-4.69 c0.25-0.51,0.7-0.909,1.25-1.18c-0.91-1.56-1.22-3.24-0.869-4.91c0.649-3.14,3.41-5.56,4.99-6.351L17.92,1.38V2.5 c0.2-0.16,0.38-0.3,0.51-0.37C21.79,0.221,23.74,0,24.92,0h1.76l-0.83,1.391c0.17-0.07,0.381-0.16,0.619-0.281 C28.82-0.07,32.1,1,32.24,1.05l1.529,0.511L32.629,2.71c-0.32,0.319-0.639,0.86-0.6,1.11c0.02,0.119,0.26,0.25,0.34,0.289 c1.361,0.681,3.09,2.48,3.66,4.82c0.359,1.5,0.189,3-0.471,4.4c0.592,0.27,1.07,0.689,1.342,1.23c0.869,1.81,0.318,3.93,0.049,4.76 c-0.391,1.57-1.01,3.42-2.26,3.74c-0.119,0.33-0.279,0.75-0.471,1.239c-0.879,0.19-1.719,0.47-2.52,0.83 c0.609-1.37,1.1-2.71,1.35-3.44l0.51-1.539l0.73,0.72c0.17-0.31,0.441-0.931,0.74-2.11c0.34-1.029,0.52-2.39,0.07-3.32 C35,15.23,34.609,15,34,15h-0.791l-0.18-0.77C33.01,14.17,31.459,8,27,8c-0.23,0-0.41,0.1-0.77,0.3C25.73,8.6,25.03,9,23.92,9 c-1.391,0-1.99-0.4-2.49-0.82C21.221,8.01,21.21,8,21,8c-4.75,0-5.971,5.939-6.02,6.189L14.82,15H14c-0.609,0-1,0.221-1.1,0.43 c-0.561,1.16-0.101,2.791,0.05,3.26c0.31,1.23,0.59,1.86,0.76,2.181l0.729-0.729l0.511,1.549c0.69,2.181,2.22,6.201,3.67,7.601 l0.3,0.3v0.42c0.01,0.311,0.01,1.91-0.699,3.7C19.79,34.85,22.55,35.98,24.02,36h0.03C24.01,36.33,24,36.66,24,37 C24,41.63,26.43,45.7,30.08,48z M43.92,48H48v-4.08C46.959,45.57,45.57,46.96,43.92,48z M37,48c-6.07,0-11-4.93-11-11s4.93-11,11-11 s11,4.93,11,11S43.07,48,37,48z M42,36H32v2h10V36z"/> 
</defs>
<use x="0" y="0" class="bg" xlink:href="#bg"/>
<use x="26" y="26" xlink:href="#i-1830"/>
<use x="0" y="0" xlink:href="#fg"/>
</svg>